<svg xmlns="http://www.w3.org/2000/svg" viewBox="0 0 512 512" width="100%" height="100%">
  <defs>
    <linearGradient id="pwaGrad" x1="0%" y1="0%" x2="100%" y2="100%">
      <stop offset="0%" stop-color="#1e293b" />
      <stop offset="100%" stop-color="#0f172a" />
    </linearGradient>
    <linearGradient id="accentGrad" x1="0%" y1="0%" x2="100%" y2="100%">
      <stop offset="0%" stop-color="#3b82f6" />
      <stop offset="100%" stop-color="#1d4ed8" />
    </linearGradient>
  </defs>
  <rect width="512" height="512" rx="112" fill="url(#pwaGrad)"/>
  <circle cx="256" cy="256" r="180" fill="none" stroke="url(#accentGrad)" stroke-width="12" opacity="0.4"/>
  <g transform="translate(136, 126)">
    <!-- Stylized G / S monogram -->
    <path d="M 120 40 C 60 40, 20 80, 20 130 C 20 180, 60 220, 120 220 C 180 220, 220 180, 220 140 L 120 140 L 120 170 L 180 170 C 170 190, 150 200, 120 200 C 75 200, 50 170, 50 130 C 50 90, 75 60, 120 60 C 155 60, 175 75, 185 95 L 210 75 C 190 45, 160 40, 120 40 Z" fill="#ffffff"/>
    <circle cx="120" cy="130" r="16" fill="#60a5fa"/>
  </g>
</svg>
